<?xml version="1.0" encoding="UTF-8" standalone="no"?>
<svg
   xmlns:dc="http://purl.org/dc/elements/1.1/"
   xmlns:cc="http://creativecommons.org/ns#"
   xmlns:rdf="http://www.w3.org/1999/02/22-rdf-syntax-ns#"
   xmlns:svg="http://www.w3.org/2000/svg"
   xmlns="http://www.w3.org/2000/svg"
   xmlns:sodipodi="http://sodipodi.sourceforge.net/DTD/sodipodi-0.dtd"
   xmlns:inkscape="http://www.inkscape.org/namespaces/inkscape"
   version="1.1"
   id="svg2"
   viewBox="0 0 131.48711 168.37718"
   height="47.519783"
   width="37.108585"
   inkscape:version="0.91 r13725"
   sodipodi:docname="spades_ace.svg">
  <sodipodi:namedview
     pagecolor="#ffffff"
     bordercolor="#666666"
     borderopacity="1"
     objecttolerance="10"
     gridtolerance="10"
     guidetolerance="10"
     inkscape:pageopacity="0"
     inkscape:pageshadow="2"
     inkscape:window-width="1280"
     inkscape:window-height="960"
     id="namedview7"
     showgrid="false"
     fit-margin-top="0"
     fit-margin-left="0"
     fit-margin-right="0"
     fit-margin-bottom="0"
     inkscape:zoom="1.5892256"
     inkscape:cx="30.000976"
     inkscape:cy="152.67287"
     inkscape:window-x="1280"
     inkscape:window-y="27"
     inkscape:window-maximized="1"
     inkscape:current-layer="svg2" />
  <defs
     id="defs4" />
  <metadata
     id="metadata7">
    <rdf:RDF>
      <cc:Work
         rdf:about="">
        <dc:format>image/svg+xml</dc:format>
        <dc:type
           rdf:resource="http://purl.org/dc/dcmitype/StillImage" />
        <dc:title></dc:title>
      </cc:Work>
    </rdf:RDF>
  </metadata>
  <g
     id="layer1"
     transform="translate(-38.730606,-810.05851)">
    <path
       id="path2987"
       d="m 99.37485,978.42931 c -9.78207,-0.005 -17.86826,-0.0901 -17.9693,-0.18823 -0.10104,-0.098 0.69554,-0.85537 1.77018,-1.68291 3.91225,-3.01269 7.28381,-8.03342 11.17412,-16.63996 2.67365,-5.91493 3.53385,-8.2884 4.42197,-12.20125 1.4212,-6.26148 1.3751,-10.54653 -0.13292,-12.35305 l -0.72293,-0.86604 -2.91253,3.05979 c -3.23791,3.40162 -7.45114,6.29807 -12.15201,8.35409 -5.14939,2.25217 -8.4812,2.97266 -14.13691,3.05703 -4.46044,0.0666 -5.42068,-0.0496 -8.60828,-1.04201 -8.04733,-2.50516 -14.56913,-8.24361 -18.36754,-16.16137 -2.28824,-4.7698 -2.87295,-7.41234 -2.9835,-13.48348 -0.0894,-4.91176 0.0173,-5.86625 1.13415,-10.14581 1.74423,-6.68335 5.3176,-14.9524 8.95556,-20.72386 4.42161,-7.01467 14.6166,-20.03422 25.3915,-32.42633 8.86533,-10.1959 12.43741,-14.73836 18.62245,-23.68131 6.58045,-9.51469 9.19284,-14.07624 10.43909,-18.22792 0.4982,-1.65963 0.99619,-3.01781 1.10665,-3.01818 0.11048,-6e-5 0.75515,1.64871 1.43261,3.66461 2.69444,8.01777 9.66671,18.99384 19.77535,31.13128 1.79981,2.16105 7.04031,8.3158 11.64554,13.67722 15.08251,17.55909 21.44984,26.39934 27.07474,37.58986 4.3557,8.6655 6.07403,15.34478 5.86852,22.81139 -0.26262,9.54224 -3.3187,16.28318 -10.40209,22.94441 -2.91798,2.74408 -7.39341,5.34263 -10.95133,6.35865 -1.10007,0.31413 -4.07755,0.71803 -6.61665,0.89754 -7.60269,0.5375 -13.27052,-0.95204 -21.16835,-5.5632 -3.70385,-2.1625 -7.89027,-5.65574 -9.04719,-7.54916 -0.93487,-1.53004 -1.65146,-1.43246 -2.35336,0.32046 -1.18025,2.9476 -1.36925,5.60269 -0.65089,9.14373 2.24015,11.04242 9.40203,25.18527 15.55188,30.7109 l 2.48496,2.23272 -4.94397,0.005 c -2.71918,0.004 -12.94748,6.8e-4 -22.72955,-0.005 z m 16.23775,-5.83975 c -1.92755,-1.54115 -6.10366,-7.4896 -8.17194,-11.64015 -2.15087,-4.31627 -2.80838,-7.4861 -2.20014,-10.60713 0.24939,-1.27977 0.54565,-2.79933 0.65833,-3.3768 0.13139,-0.67336 -0.15034,-1.72383 -0.7855,-2.92876 l -0.99038,-1.87882 -1.10962,2.11321 -1.10962,2.1132 0.73285,1.94633 c 1.08113,2.87128 0.82237,7.04308 -0.63169,10.18469 -1.83759,3.97024 -7.99536,13.11245 -9.58138,14.22513 -1.85703,1.30279 -1.0319,1.26022 2.50644,-0.12923 2.54962,-1.00125 3.36378,-1.12175 7.8649,-1.16418 5.17154,-0.0487 9.88987,0.62201 11.94884,1.69867 1.91439,1.00104 2.41544,0.68038 0.86891,-0.55612 z m -7.41593,-2.58273 c -2.38905,-0.52182 -8.41072,-0.371 -10.64177,0.26654 -0.98914,0.28264 -0.98675,0.27071 0.21901,-1.09382 1.65907,-1.87753 2.70741,-3.86628 4.67208,-8.86303 1.51074,-3.8423 1.70537,-4.14871 2.061,-3.24456 0.21599,0.54916 1.07444,2.855 1.90769,5.12412 1.45892,3.97304 2.36669,5.6332 4.1232,7.54072 0.92111,1.00031 0.97417,0.99418 -2.34121,0.27003 z m 39.75783,-27.17341 c 5.5956,-2.13405 10.78498,-7.12271 13.51261,-12.98998 1.71667,-3.69258 2.32644,-5.92068 2.84624,-10.40022 0.72874,-6.28011 -0.33141,-11.91556 -3.74574,-19.91121 -4.51332,-10.56926 -10.85642,-19.25958 -24.11413,-33.03737 -20.15446,-20.94511 -25.14827,-27.46243 -29.89079,-39.00998 -0.81171,-1.97645 -1.61023,-4.35982 -1.77449,-5.2964 -0.16426,-0.9366 -0.41824,-1.69622 -0.56441,-1.68806 -0.14616,0.009 -0.7273,1.52893 -1.29138,3.37951 -3.39327,11.13204 -11.04335,21.86028 -28.84084,40.44552 -12.40546,12.95457 -14.33581,15.25263 -19.42185,23.12162 -6.64362,10.27882 -9.70565,18.55143 -10.04892,27.14898 -0.54129,13.55712 6.56298,25.14609 17.37533,28.3438 6.61092,1.95518 15.68791,0.36886 22.83884,-3.99133 5.7451,-3.50302 8.67019,-6.39327 10.88164,-10.75211 0.71098,-1.40132 1.35758,-2.62687 1.43689,-2.72343 0.0793,-0.0966 0.7999,0.43502 1.60126,1.1813 1.4032,1.30672 3.86176,5.48155 4.88044,8.28736 l 0.49018,1.35011 1.31867,-3.1519 c 0.87567,-2.09308 2.03981,-3.95452 3.46542,-5.54118 l 2.14678,-2.38932 1.43459,2.85631 c 3.27376,6.51822 12.41083,12.96484 21.71672,15.32227 3.97799,1.00771 10.32204,0.75191 13.74694,-0.55429 z m -10.64096,-0.31054 c -3.3869,-0.40191 -5.51403,-1.05141 -9.04815,-2.76279 -9.29202,-4.49956 -14.19195,-9.50111 -15.14287,-15.45688 -0.16718,-1.04703 -0.49229,-1.90087 -0.72248,-1.89743 -1.36343,0.0202 -5.74182,5.0905 -7.25032,8.39584 -0.34212,0.74966 -0.77852,1.36536 -0.96977,1.36821 -0.19123,0.004 -0.74802,-0.75715 -1.23729,-1.68889 -1.4166,-2.69761 -4.05694,-6.1654 -5.51538,-7.24376 -1.47181,-1.08828 -1.46615,-1.0915 -2.16465,1.23201 -0.74716,2.48539 -2.27928,5.48303 -3.77166,7.3793 -1.52292,1.9351 -7.96807,6.52803 -11.27586,8.03539 -7.43314,3.38727 -16.18713,3.4223 -22.07056,0.0884 -5.03952,-2.85575 -8.81264,-8.14688 -10.68994,-14.99073 -2.65359,-9.67384 -1.17725,-18.78077 4.8116,-29.681 5.51588,-10.03936 8.92209,-14.55949 19.07805,-25.317 16.83604,-17.83329 25.30432,-28.81554 30.20708,-39.17467 2.03733,-4.30469 2.48981,-4.08441 1.33775,0.6513 -1.96826,8.09092 -15.1764,27.68752 -35.34908,52.44655 -5.43668,6.67275 -11.29367,16.48314 -13.08992,21.92546 -2.46714,7.47501 -2.82383,13.4954 -1.16427,19.65087 2.35937,8.7511 7.23491,13.80264 14.36814,14.8868 10.34656,1.57257 19.60118,-5.92388 25.72842,-20.84054 l 1.47925,-3.60121 2.02883,3.03812 c 2.20095,3.29587 6.67427,7.9904 7.60072,7.97657 0.71113,-0.01 5.94588,-5.63421 7.66929,-8.239 0.69751,-1.05421 1.36737,-1.92288 1.48858,-1.93041 0.12125,-0.007 0.47242,0.66051 0.78044,1.48448 0.30803,0.82397 1.28108,2.91182 2.16233,4.63968 6.24322,12.24114 14.52008,18.24452 24.09348,17.47546 4.25689,-0.34196 7.33525,-2.15272 10.31018,-6.06468 3.22328,-4.23858 4.74793,-8.20303 5.26658,-13.69432 0.57599,-6.09828 -0.9619,-12.82411 -4.73908,-20.72593 -2.11705,-4.42887 -8.38089,-13.45594 -13.3536,-19.24443 -9.72163,-11.31644 -25.81166,-33.84645 -30.23243,-42.33284 -1.14602,-2.19995 -2.62441,-7.02518 -2.98606,-9.74595 -0.29229,-2.19903 0.15535,-1.75093 1.333,1.33437 1.91929,5.0283 6.65928,12.54695 11.90628,18.88595 3.28883,3.97331 6.91774,7.97641 16.02639,17.67892 5.86988,6.2526 9.58848,10.55119 13.80034,15.95276 7.20228,9.23672 13.1219,21.47918 14.54531,30.08144 1.38958,8.39786 -1.96655,18.90565 -7.81132,24.45672 -2.28024,2.16562 -6.8087,4.51944 -10.16421,5.28318 -2.85659,0.65018 -3.86192,0.68953 -7.27314,0.28474 z m -3.55119,-4.50406 c -3.40914,-1.24018 -6.2518,-3.0775 -8.51379,-5.50277 -4.02099,-4.31129 -8.20563,-11.56621 -10.11841,-17.54228 -1.00118,-3.1281 -1.35258,-3.58291 -1.74948,-2.26448 -0.81632,2.71156 -7.93724,13.01608 -9.00334,13.02848 -0.75612,0.01 -4.05206,-4.26227 -7.19165,-9.3194 -1.62676,-2.6203 -3.01006,-4.81496 -3.074,-4.87704 -0.064,-0.0621 -0.48373,1.34695 -0.93286,3.13117 -2.05273,8.15461 -8.17998,17.94434 -13.52368,21.60727 -7.54292,5.17042 -18.71844,2.89219 -22.12594,-4.51056 -0.90753,-1.97158 -1.68338,-6.10944 -1.14703,-6.11745 0.18393,-0.004 0.33717,0.17963 0.34054,0.40527 0.0133,0.89271 2.30205,3.69765 3.86111,4.73195 6.11741,4.05836 12.01724,3.39747 18.82066,-2.10826 5.31844,-4.30399 10.24383,-14.01448 8.35799,-16.4779 -0.48841,-0.63799 -0.53122,-0.53945 -0.37605,0.86562 0.23055,2.08757 -0.67854,3.47882 -3.10739,4.7555 -1.0497,0.55175 -2.08232,1.32424 -2.29468,1.71665 -0.35434,0.65472 -0.48249,0.62395 -1.55661,-0.37385 -0.64376,-0.59799 -1.59526,-1.08093 -2.11444,-1.0732 -0.92849,0.0139 -0.93145,0.0274 -0.1808,0.83248 0.91102,0.97697 1.06611,4.16876 0.31607,6.50489 -0.60419,1.88187 -3.68002,5.19795 -5.79168,6.24407 -3.54099,1.75419 -9.17433,0.58906 -12.04104,-2.49042 -4.10769,-4.41259 -2.49601,-11.81947 3.24644,-14.91992 2.75715,-1.48863 6.67203,-0.92717 8.74476,1.25413 0.97136,1.02225 0.97854,1.07457 0.33872,2.46945 -0.89483,1.95087 -1.5269,2.07669 -3.04248,0.60566 -1.18839,-1.15346 -1.46197,-1.23921 -3.30142,-1.03472 -3.48099,0.38696 -5.63477,3.55888 -4.66645,6.8724 0.55476,1.89833 3.46111,4.49766 5.40274,4.83201 5.094,0.87721 9.85534,-4.74569 8.5671,-10.11731 -0.40135,-1.67353 -0.33455,-2.25029 0.57702,-4.98183 1.99975,-5.99234 0.88123,-15.25425 -2.30766,-19.10839 -0.63046,-0.76198 -0.64035,-0.74995 -0.24753,0.30149 0.42514,1.13801 0.22478,2.31006 -0.3965,2.31934 -0.19727,0.004 -0.36149,-0.18423 -0.36495,-0.41593 -0.004,-0.2317 -0.75879,-0.7448 -1.67851,-1.1402 -2.09571,-0.901 -3.71051,-0.42491 -4.59784,1.35557 -0.58096,1.16577 -0.57443,1.21298 0.12627,0.91331 1.66171,-0.7107 2.24931,-0.72135 3.75745,-0.0683 2.92424,1.2665 4.68657,4.82541 4.73892,9.56986 0.0317,2.87038 -0.59569,6.23565 -1.16402,6.24413 -0.11677,0.003 -0.89805,-0.52353 -1.73621,-1.16724 -2.0192,-1.55079 -3.29097,-1.97338 -5.79467,-1.92541 -4.17919,0.0801 -8.24483,3.17758 -10.46035,7.96955 -0.71715,1.55109 -1.30258,3.27721 -1.30096,3.83578 0.003,0.96762 -0.0201,0.97798 -0.48362,0.21942 -0.67169,-1.09918 -0.62658,-7.37463 0.078,-10.84777 1.77125,-8.73137 8.74103,-21.39043 16.70829,-30.34692 l 2.14435,-2.4106 0.28943,3.78032 c 0.22693,2.96382 0.51981,4.21422 1.35601,5.78918 1.30043,2.44926 4.13654,5.06432 6.1912,5.7086 2.24532,0.70406 5.80043,0.28154 7.3085,-0.86859 1.57044,-1.19771 2.6837,-3.66915 2.30012,-5.10629 -0.20137,-0.75448 -0.13922,-1.01838 0.21354,-0.90661 0.8517,0.26986 2.0197,2.08478 2.42403,3.7666 0.4122,1.71458 0.0289,5.52603 -0.69729,6.93289 -0.7258,1.40619 -3.06456,2.93739 -5.46998,3.58121 -3.66809,0.98181 -4.41812,1.40545 -5.08836,2.87405 -0.78329,1.71629 -0.40364,4.02439 0.76081,4.62541 0.78403,0.40468 0.78964,0.38537 0.1466,-0.50417 -0.85398,-1.18133 -0.84456,-1.37791 0.1133,-2.36479 0.68164,-0.70229 1.33389,-0.82456 4.70711,-0.88247 4.94928,-0.085 6.78964,-0.84478 8.21384,-3.39105 1.55877,-2.78686 1.91294,-4.80117 1.34852,-7.66938 -0.89051,-4.52536 -3.27704,-8.26534 -6.1777,-9.68126 -2.41618,-1.1794 -4.35698,-1.20466 -5.75007,-0.0747 -1.26197,1.0235 -1.39125,1.81937 -0.18705,1.15161 1.22374,-0.6786 2.67389,0.0789 3.41675,1.78489 0.52349,1.20215 0.53303,1.58315 0.0688,2.7427 -1.53596,3.83595 -6.03118,4.20001 -10.00034,0.80995 -2.5362,-2.16619 -3.66088,-4.52621 -3.69031,-7.74378 -0.041,-4.48273 2.21065,-8.19123 6.15344,-10.13476 1.5695,-0.77368 5.05367,-0.86693 7.04382,-0.18845 5.55344,1.89306 10.6434,8.93971 12.50956,17.31849 0.69129,3.10381 2.43881,16.50479 2.4734,18.96731 0.0142,1.00166 -0.30051,2.26259 -0.75812,3.039 -0.99337,1.6853 -0.97662,2.77561 0.0517,3.39698 0.44591,0.26932 0.81684,0.89804 0.82429,1.39715 0.008,0.53888 0.25824,0.90382 0.61599,0.89848 0.35776,-0.005 0.59696,-0.37757 0.58892,-0.91646 -0.007,-0.49911 0.34457,-1.13861 0.78225,-1.42111 0.96583,-0.62338 0.99675,-1.73285 0.0952,-3.41434 -0.55144,-1.02845 -0.63919,-1.96832 -0.47578,-5.09496 0.2616,-5.00495 1.42319,-13.13094 2.40913,-16.85319 2.08652,-7.87731 6.53819,-14.56121 11.14794,-16.73795 3.75507,-1.77313 8.77525,-0.59138 11.73348,2.7621 1.88164,2.13303 2.39267,3.76828 2.26854,7.25924 -0.0872,2.45549 -0.31372,3.26465 -1.4703,5.2539 -1.84542,3.17402 -4.47474,4.83582 -7.33403,4.63527 -1.65931,-0.11637 -2.20805,-0.37466 -3.33767,-1.57097 -1.06629,-1.12913 -1.35712,-1.77628 -1.3763,-3.06239 -0.0321,-2.14977 1.4359,-3.79154 3.18451,-3.56147 1.45119,0.19092 1.51401,-0.27433 0.15352,-1.13703 -1.62086,-1.0278 -4.53626,-0.51532 -6.87087,1.20778 -2.07483,1.53136 -4.22569,4.79928 -4.9003,7.4453 -0.59457,2.3321 -0.12316,6.60666 0.96801,8.77757 1.5014,2.98703 2.74863,3.58591 7.80144,3.74598 3.79084,0.12012 4.42169,0.24446 5.2312,1.03123 0.80433,0.78177 0.85569,1.00203 0.40698,1.74498 -0.42493,0.70352 -0.42207,0.81839 0.0174,0.6654 0.77082,-0.2688 1.26405,-2.05238 0.92202,-3.33394 -0.51037,-1.91217 -2.23863,-3.19347 -4.97535,-3.68869 -1.36373,-0.24676 -2.95903,-0.8144 -3.54512,-1.26143 -3.14245,-2.39685 -3.99914,-8.95835 -1.58318,-12.12585 1.10138,-1.444 1.54994,-1.35254 1.31179,0.26751 -0.25374,1.72602 0.67969,3.4886 2.59909,4.90784 1.15127,0.85125 2.0064,1.11178 3.93514,1.1989 3.10506,0.14027 4.91696,-0.62339 7.29694,-3.07547 2.56345,-2.6411 3.41924,-4.89738 3.39385,-8.94802 -0.0112,-1.82123 0.10912,-3.31443 0.26779,-3.31823 0.49638,-0.0112 6.02463,7.1144 9.54828,12.30845 7.47167,11.01355 10.66019,19.82509 10.0983,27.90669 -0.25288,3.63741 -0.81276,4.53855 -1.23442,1.98685 -0.55269,-3.34467 -4.13799,-8.21907 -7.40661,-10.06967 -1.41784,-0.80275 -2.34792,-1.01062 -4.50069,-1.00588 -2.92249,0.006 -4.65051,0.66591 -6.55719,2.50244 l -1.05367,1.01491 -0.55205,-0.93637 c -0.35258,-0.598 -0.56615,-2.24275 -0.59102,-4.55134 -0.0454,-4.21196 0.80637,-6.69415 3.14599,-9.16835 1.85524,-1.96196 3.40434,-2.34466 4.96485,-1.22655 l 1.1722,0.83991 -0.0172,-1.15469 c -0.0385,-2.57823 -3.59067,-3.53051 -6.08202,-1.63046 l -1.26522,0.96494 0.16014,-1.21723 c 0.20769,-1.57865 -0.48461,-1.32478 -1.81954,0.6672 -1.55208,2.31604 -2.21065,4.7916 -2.37933,8.94392 -0.12832,3.15845 0.004,4.33727 0.76011,6.818 0.50341,1.64961 0.91681,3.4964 0.91865,4.10398 0.002,0.60758 -0.0172,2.14447 -0.0424,3.4153 -0.076,3.83114 1.6183,6.70709 4.77643,8.10788 4.64766,2.06151 9.42785,-0.85126 9.35551,-5.7007 -0.0339,-2.27493 -0.94319,-3.71786 -2.98356,-4.7347 -1.50998,-0.7525 -4.03966,-0.47133 -5.16019,0.57354 -0.75099,0.70028 -0.82074,0.68295 -2.04966,-0.50987 -1.25353,-1.21667 -1.26219,-1.25067 -0.58978,-2.31108 1.41739,-2.23522 6.43087,-3.44942 8.95928,-2.16983 0.60119,0.30424 1.77126,1.23588 2.60017,2.07028 4.01108,4.03761 4.32068,9.5078 0.7732,13.66125 -2.85618,3.34408 -5.81632,4.10278 -10.34593,2.65172 -3.26589,-1.04622 -5.29385,-2.6548 -6.56762,-5.20939 -1.79563,-3.60125 -1.80411,-4.89275 -0.0553,-8.41852 0.42879,-0.86445 -1.75135,-0.106 -2.79955,0.97396 -0.92815,0.95628 -1.29602,1.12765 -1.559,0.72628 -0.18931,-0.28894 -0.34887,-0.65375 -0.3546,-0.81068 -0.005,-0.15695 -0.90338,-0.8511 -1.99478,-1.54256 -2.79157,-1.76861 -3.93651,-4.29381 -2.92931,-6.46071 0.39674,-0.85358 0.38985,-0.85678 -0.20227,-0.0946 -1.34795,1.73491 -0.84852,4.55826 1.62975,9.21308 4.24011,7.96395 10.84809,12.83908 17.80768,13.13788 2.81843,0.121 3.38916,0.0168 5.34602,-0.97715 2.2515,-1.14348 4.4853,-3.4416 5.77161,-5.93777 l 0.73015,-1.41694 0.0347,1.40553 c 0.0749,3.02198 -3.24703,8.54806 -6.3916,10.63278 -1.83794,1.21849 -2.28941,1.33393 -5.83268,1.49137 -3.23873,0.14395 -4.23123,0.0285 -6.33377,-0.73633 z m 4.2599,-10.65055 c -1.15042,-0.20634 -2.94694,-1.96081 -3.65549,-3.56994 -0.56264,-1.27776 -0.8309,-4.51992 -0.37456,-4.52674 0.86792,-0.013 2.57625,1.51668 3.24935,2.90942 0.7051,1.45895 0.95524,1.64772 2.15943,1.62976 1.63813,-0.0244 2.48616,-1.05041 1.76501,-2.1354 -0.25447,-0.38286 -0.84544,-0.67605 -1.31326,-0.65151 -0.93924,0.0493 -1.12461,-0.5943 -0.38936,-1.3518 0.50974,-0.52518 2.24584,-0.67297 3.31213,-0.28194 0.88165,0.32333 1.859,2.22846 1.88044,3.66555 0.0206,1.38376 -1.1752,3.08539 -2.76884,3.93985 -1.1134,0.59699 -2.08962,0.69112 -3.86485,0.37275 z m -72.62887,-1.10184 c -1.8829,-1.68672 -2.28009,-3.57005 -1.1476,-5.44146 0.90331,-1.49268 2.42711,-2.05913 3.85631,-1.43351 1.19852,0.52464 1.36659,1.66688 0.20322,1.38112 -0.57612,-0.14151 -0.92194,0.0946 -1.25612,0.85815 -0.38825,0.88696 -0.34411,1.17894 0.27931,1.84749 0.40724,0.43672 1.15115,0.78792 1.65313,0.78042 1.0282,-0.0154 2.55185,-1.76096 2.53479,-2.90407 -0.006,-0.41201 0.2378,-0.75283 0.5421,-0.75736 0.3043,-0.004 0.77423,-0.28272 1.04429,-0.61816 0.81668,-1.01445 1.19466,-0.70496 1.22008,0.99901 0.0547,3.66371 -1.93556,6.07813 -5.28029,6.40581 -2.01455,0.19736 -2.26822,0.11962 -3.64922,-1.11744 z m 38.28122,-29.5414 c -0.0214,-0.93871 -0.30474,-2.15474 -0.62867,-2.70226 -0.82777,-1.39915 -0.77166,-2.05518 0.30453,-3.56034 l 0.94062,-1.31555 0.9365,1.46593 c 0.84311,1.31973 0.88559,1.59136 0.42598,2.72358 -0.28078,0.69173 -0.57832,2.11738 -0.66119,3.16812 -0.19978,2.53273 -1.25988,2.71013 -1.31777,0.22052 z m -2.10969,-9.9088 c -0.86811,-4.08952 -3.49561,-8.57449 -7.05897,-12.04922 -3.76154,-3.66798 -6.83989,-5.25935 -9.32973,-4.82302 -1.32738,0.23261 -1.5668,0.16627 -1.56368,-0.43315 0.006,-1.11588 0.90278,-2.50884 2.17202,-3.37295 2.30237,-1.56749 4.00198,-0.95188 7.67312,2.77925 5.35886,5.44643 9.20497,12.8766 9.28033,17.92836 0.0412,2.75972 -0.58436,2.74411 -1.17309,-0.0291 z m 3.99264,0.23929 c -0.0632,-4.87171 3.33598,-12.1678 8.08317,-17.35289 4.67902,-5.11062 7.82467,-5.91136 10.45956,-2.66257 0.47006,0.57959 0.86045,1.44239 0.86754,1.91738 0.0113,0.78521 -0.19675,0.86545 -2.29674,0.88397 -3.22643,0.0285 -5.63879,1.35568 -9.30199,5.11778 -3.53909,3.63465 -5.97252,7.88885 -6.66107,11.6452 -0.2571,1.4025 -0.61502,2.5522 -0.7954,2.5549 -0.18037,0.004 -0.34014,-0.94401 -0.35507,-2.10377 z m -1.70759,-6.45909 c -0.0525,-3.51807 -0.81769,-7.55374 -3.31236,-17.46914 -2.40637,-9.56448 -2.0903,-14.7436 1.28858,-21.114 0.75006,-1.41415 1.57136,-3.35523 1.82509,-4.31351 l 0.46134,-1.74233 0.51958,1.59915 c 0.28576,0.87954 1.18184,2.96762 1.99125,4.64021 3.15249,6.51425 3.57627,10.99462 1.74181,18.41491 -1.60025,6.47287 -2.90241,12.95872 -3.51969,17.53096 -0.5915,4.38136 -0.95353,5.27363 -0.9956,2.45375 z m -4.73473,-7.87465 c -0.62328,-0.91198 -2.19381,-2.92228 -3.49007,-4.46735 -2.88223,-3.4355 -4.06732,-5.64277 -4.41105,-8.21579 -0.45652,-3.41739 0.98388,-5.55484 3.40975,-5.05984 2.34336,0.47817 3.44077,3.35912 4.60633,12.09258 0.48005,3.59696 0.98256,6.71172 1.11669,6.9217 0.13413,0.20994 0.16687,0.38289 0.0727,0.38429 -0.0941,10e-4 -0.68111,-0.74361 -1.30437,-1.65559 z m 9.23937,0.53291 c 0.0854,-0.66411 0.32949,-3.01786 0.54233,-5.23053 0.68655,-7.13692 1.98118,-11.0743 4.1702,-12.68275 1.46697,-1.07791 2.12127,-1.08566 3.09809,-0.0367 0.60476,0.64941 0.78312,1.42855 0.80196,3.50315 0.0308,3.39142 -0.55509,4.63804 -4.43511,9.4375 -1.6841,2.08316 -3.34794,4.33416 -3.69741,5.00221 l -0.6354,1.21465 z m -18.61695,-9.60206 c -1.14795,-0.72097 -1.92925,-0.73027 -3.64243,-0.0434 -0.60827,0.24388 -0.58565,0.0738 0.17379,-1.30649 0.48019,-0.87278 1.48172,-2.30398 2.22562,-3.18045 l 1.35253,-1.59358 0.0272,1.82378 c 0.015,1.00308 0.30142,2.56554 0.63657,3.47211 0.33514,0.90657 0.57199,1.63567 0.52632,1.6202 -0.0457,-0.0155 -0.63048,-0.37196 -1.2996,-0.7922 z m 28.09587,-1.02237 c 0.15425,-0.86511 0.38171,-2.46583 0.50547,-3.55713 l 0.22503,-1.9842 1.06651,1.56321 c 0.58657,0.85976 1.37871,2.14608 1.7603,2.85846 l 0.69377,1.29526 -1.32667,0.0198 c -0.72968,0.0109 -1.74928,0.32529 -2.26579,0.69867 l -0.93909,0.67886 z m -21.57435,-9.89739 c -0.52798,-0.42668 -1.30141,-0.77067 -1.71875,-0.76445 -0.41732,0.006 -0.75992,-0.0662 -0.76134,-0.1611 -0.004,-0.3069 3.11798,-5.03629 3.47634,-5.26522 0.19317,-0.1234 0.22966,0.48002 0.0822,1.36016 -0.14572,0.87009 -0.16375,2.49246 -0.04,3.60528 0.12371,1.11281 0.15666,2.01831 0.0732,2.0122 -0.0835,-0.006 -0.58369,-0.3602 -1.11166,-0.78687 z m 14.90525,-2.65253 c 0.009,-1.74742 0.055,-3.17855 0.10202,-3.18027 0.16114,-0.007 3.39967,4.72392 3.40336,4.9706 0.002,0.13562 -0.18474,0.13397 -0.415,-0.003 -0.23028,-0.13761 -1.02354,0.11893 -1.7628,0.57011 l -1.34413,0.82033 z"
       style="color:#000000;clip-rule:nonzero;display:inline;overflow:visible;visibility:visible;opacity:1;isolation:auto;mix-blend-mode:normal;color-interpolation:sRGB;color-interpolation-filters:linearRGB;solid-color:#000000;solid-opacity:1;fill:#000000;fill-opacity:1;fill-rule:nonzero;stroke-width:1;stroke-linecap:butt;stroke-linejoin:miter;stroke-miterlimit:4;stroke-dasharray:none;stroke-dashoffset:0;stroke-opacity:1;color-rendering:auto;image-rendering:auto;shape-rendering:auto;text-rendering:auto;enable-background:accumulate"
       inkscape:connector-curvature="0" />
  </g>
</svg>
